<?xml version="1.0" encoding="iso-8859-1"?>
<!-- Uploaded to: SVG Repo, www.svgrepo.com, Generator: SVG Repo Mixer Tools -->
<svg height="800px" width="800px" version="1.1" id="Layer_1" xmlns="http://www.w3.org/2000/svg" xmlns:xlink="http://www.w3.org/1999/xlink" 
	 viewBox="0 0 512.002 512.002" xml:space="preserve">
<path style="fill:#D7DEED;" d="M124.503,441.651c-13.433-5.373-22.705-17.881-23.757-32.31
	c-2.008-27.554-7.939-74.167-25.455-109.198c-19.386-38.773-35.311-85.103-35.311-132.416c0-32.368,11.402-72.829,44.139-105.933
	C137.341,7.975,183.064,0,243.019,0c97.105,0,134.826,39.006,151.727,61.794c16.368,22.069,26.142,70.141,33.656,86.622
	c5.702,12.506,8.276,23.725,1.655,38.07c-6.621,14.345-3.859,20.067,1.288,30.161c4.781,9.379,26.549,40.794,33.84,47.082
	c7.357,6.345,11.495,23.449-2.023,30.345c-9.524,4.86-21.15,4.598-22.254,8.643c-1.103,4.046-2.558,10.182,2.241,17.781
	c2.843,4.501,3.839,12.102-6.722,18.01c-1.553,0.868-1.792,2.971-0.643,4.329c2.267,2.681,4.854,7.017,2.916,11.376
	c-2.943,6.621-10.667,6.621-11.402,17.931c-0.501,7.7,5.517,17.655,3.862,30.621c-1.655,12.966-15.449,30.345-38.897,29.794
	c-23.449-0.552-48.075-4.064-59.496,7.357c-6.033,6.033-8.531,32.76-9.567,53.87c-0.646,13.152-14.077,21.714-26.302,16.823
	L124.503,441.651z"/>
<path style="fill:#FFFFFF;" d="M322.469,123.717L322.469,123.717v-8.828c0-9.751-7.904-17.655-17.655-17.655H154.742
	c-9.751,0-17.655,7.904-17.655,17.655v88.277c0,9.751,7.904,17.655,17.655,17.655h150.072c9.751,0,17.655-7.904,17.655-17.655
	v-8.828c9.751,0,17.655-7.904,17.655-17.655v-35.311C340.124,131.623,332.22,123.717,322.469,123.717z"/>
<polygon style="fill:#A5EB78;" points="225.363,114.89 154.742,114.89 154.742,203.167 243.019,203.167 243.019,159.028 
	207.708,159.028 "/>
<path style="fill:#FFE164;" d="M232.442,150.201l10.088-65.57c0.791-5.145-6.337-7.292-8.519-2.566l-34.507,74.764
	c-2.377,5.149,1.385,11.027,7.056,11.027h29.29l-10.098,65.433c-0.793,5.143,6.331,7.295,8.517,2.572l34.505-74.529
	c2.379-5.14-1.362-11.016-7.026-11.035L232.442,150.201z"/>
</svg>